<svg width="76" height="61" viewBox="0 0 76 61" fill="none" xmlns="http://www.w3.org/2000/svg">
<rect width="76" height="61" fill="#2E2E2E"/>
<g clip-path="url(#clip0_0_1)">
<rect width="1280" height="8390" transform="translate(-624 -3952)" fill="url(#paint0_linear_0_1)"/>
<g filter="url(#filter0_f_0_1)">
<path d="M805 238.001C805 381.043 -464.362 693 -600.5 693C-736.638 693 379.5 397.542 379.5 254.5C379.5 111.458 -922.638 119 -786.5 119C-650.362 119 805 94.9591 805 238.001Z" fill="#FF84FC" fill-opacity="0.298039"/>
</g>
<g filter="url(#filter1_f_0_1)">
<path d="M-444.5 -28.0002C-283.623 48.4998 -130.613 34.4998 -317.5 34.4998C-504.387 34.4998 -476.493 -331.876 -476.493 -502.347C-476.493 -672.818 470.113 -635.5 657 -635.5C843.887 -635.5 -444.5 -198.471 -444.5 -28.0002Z" fill="#FF84FC" fill-opacity="0.298039"/>
</g>
<g clip-path="url(#clip1_0_1)">
<path d="M71.7777 28.8058H59.5966C58.981 26.3835 57.3291 24.2104 54.927 22.663C52.5249 21.1157 49.524 20.2916 46.4444 20.3336H29.8722C26.7997 20.2996 23.8089 21.1273 21.4155 22.674C19.0222 24.2207 17.3764 26.3893 16.7622 28.8058H4.22217V32.1947H16.7411C17.3445 34.6186 18.9903 36.7952 21.3906 38.3439C23.7909 39.8925 26.7931 40.7148 29.8722 40.6669H46.4444C49.5235 40.7148 52.5256 39.8925 54.926 38.3439C57.3263 36.7952 58.972 34.6186 59.5755 32.1947H71.7777V28.8058ZM36.0577 37.278H29.8722C27.5476 37.3422 25.2858 36.6654 23.581 35.3954C21.8761 34.1255 20.8667 32.3656 20.7733 30.5002C20.8667 28.6349 21.8761 26.875 23.581 25.605C25.2858 24.3351 27.5476 23.6583 29.8722 23.7224H36.0788L36.0577 37.278ZM46.4444 37.278H40.1111V23.7224H46.4444C48.769 23.6583 51.0307 24.3351 52.7356 25.605C54.4404 26.875 55.4498 28.6349 55.5433 30.5002C55.4498 32.3656 54.4404 34.1255 52.7356 35.3954C51.0307 36.6654 48.769 37.3422 46.4444 37.278Z" fill="url(#paint1_linear_0_1)"/>
</g>
</g>
<defs>
<filter id="filter0_f_0_1" x="-996.477" y="-82.5215" width="2001.48" height="975.521" filterUnits="userSpaceOnUse" color-interpolation-filters="sRGB">
<feFlood flood-opacity="0" result="BackgroundImageFix"/>
<feBlend mode="normal" in="SourceGraphic" in2="BackgroundImageFix" result="shape"/>
<feGaussianBlur stdDeviation="100" result="effect1_foregroundBlur_0_1"/>
</filter>
<filter id="filter1_f_0_1" x="-677.968" y="-838.96" width="1553.5" height="1074.46" filterUnits="userSpaceOnUse" color-interpolation-filters="sRGB">
<feFlood flood-opacity="0" result="BackgroundImageFix"/>
<feBlend mode="normal" in="SourceGraphic" in2="BackgroundImageFix" result="shape"/>
<feGaussianBlur stdDeviation="100" result="effect1_foregroundBlur_0_1"/>
</filter>
<linearGradient id="paint0_linear_0_1" x1="640" y1="-2.61436e-07" x2="697.5" y2="9046" gradientUnits="userSpaceOnUse">
<stop offset="0.362909" stop-color="#010101"/>
<stop offset="0.617087" stop-color="#2B2B2B"/>
<stop offset="0.916524"/>
</linearGradient>
<linearGradient id="paint1_linear_0_1" x1="37.9999" y1="20.332" x2="37.9999" y2="46.3601" gradientUnits="userSpaceOnUse">
<stop stop-color="white"/>
<stop offset="1" stop-color="#ACACAC" stop-opacity="0"/>
</linearGradient>
<clipPath id="clip0_0_1">
<rect width="1280" height="8390" fill="white" transform="translate(-624 -3952)"/>
</clipPath>
<clipPath id="clip1_0_1">
<rect width="76" height="61" fill="white"/>
</clipPath>
</defs>
</svg>
